<?xml version="1.0" encoding="UTF-8"?><svg id="b" xmlns="http://www.w3.org/2000/svg" width="234.845" height="198.067" viewBox="0 0 234.845 198.067"><defs><style>.d{fill:#3d8dcc;}.e{fill:#fff;}.f{fill:none;}.g{fill:#211715;}.h{fill:#645d5c;}.i{fill:#f1f1f1;}</style></defs><g id="c"><path class="d" d="M10.607,169.124c-5.087-4.824-8.187-11.63-8.187-19.037,0,0,0-25.899-.004-37.807l14.09,3.07,94.432,20.766,4.425.964c4.02.876,8.213.5,12.013-1.08l92.635-38.5c7.51-3.121,12.405-10.456,12.405-18.589v54.682c0,10.595-6.376,20.149-16.16,24.216l-84.913,35.291c-6.382,2.653-13.424,3.286-20.178,1.814l-88.106-19.204c-4.811-1.049-9.07-3.379-12.452-6.585Z"/><path class="e" d="M5.632,53.682c-2.067,3.779-3.213,8.085-3.213,12.578,0,0,0,29.155-.004,46.02l14.09,3.07,94.432,20.766,4.425.964c4.02.876,8.213.5,12.013-1.08l92.635-38.5c7.51-3.121,12.405-10.456,12.405-18.589v-31.376c0-12.331-8.591-22.996-20.639-25.622L124.864,2.969c-5.238-1.142-10.699-.651-15.649,1.407L18.579,42.044c-5.635,2.342-10.14,6.505-12.947,11.638Z"/><path class="h" d="M16.51,74.057c0,26.017,0,51.122,0,77.122,0,5.004,3.486,9.333,8.375,10.399,24.928,5.434,49.856,10.867,74.784,16.301,5.791,1.262,11.268-3.156,11.268-9.083,0-26.025,0-51.138,0-77.146,0-4.987-3.47-9.3-8.343-10.362-15.696-3.421-50.226-10.947-74.827-16.309-5.789-1.262-11.258,3.155-11.258,9.08Z"/><path class="f" d="M99.67,177.878c5.792,1.262,11.268-3.156,11.268-9.083v-7.64c-7.867,7.431-19.346,11.042-29.612,12.725,6.115,1.333,12.229,2.666,18.344,3.998Z"/><path class="i" d="M101.389,112.419c-1.16-3.501-2.933-6.864-5.539-9.646-.016-.166-.036-.372-.036-.372l-.131-1.339c-.479-5.877-.847-8.41-1.489-12.492-.214-1.362-.541-2.261-1.186-2.597-.395-.206-1.19-.402-1.974-.009-3.057,1.533-8.112,5.453-11.33,7.978l-.233.074c-5.67-1.698-12.198-2.636-18.348-1.645-3.503-4.373-5.072-6.328-7.313-9.017-.804-.964-1.48-1.218-2.282-1.204-.489.008-1.658.473-2.072,1.301-1.932,3.864-3.323,6.873-4.911,10.99,0,0-1.656,4.518-1.915,5.215-4.231,3.209-6.826,7.206-8.748,11.761-2.553,6.054-2.616,11.809-1.785,18.326.46,3.611,3.394,11.165,9.53,14.468.646.348,1.256.666,1.84.959-7.184,4.231-8.207,13.678-3.673,19.657,13.844,3.018,27.688,6.035,41.532,9.053,10.266-1.683,21.745-5.294,29.612-12.725v-51.326c-3.289.431-6.529,1.289-9.549,2.59Z"/><path class="g" d="M81.401,95.64c.832-.653,1.569-1.227,2.163-1.683.948-.727,1.903-1.446,2.868-2.151,1.691-1.234,3.411-2.463,5.248-3.471.086-.047.618-.321.253-.166.306-.13.227-.067-.077-.062.174-.003.226.17.067-.004-.029-.032-.509-.418-.298-.196.177.186-.108-.144-.112-.15.119.206.085.151.012-.035.393,1.002.461,2.159.623,3.216.067.44.133.88.197,1.32.029.2.058.399.086.599.014.1.028.2.042.3.092.647-.039-.315.009.065.121.966.242,1.931.345,2.899.223,2.092.383,4.189.587,6.283.126,1.29,1.013,2.4,2.4,2.4,1.2,0,2.527-1.102,2.4-2.4-.426-4.366-.817-8.716-1.485-13.054-.201-1.306-.331-2.671-.979-3.851-.763-1.39-2.24-2.193-3.822-2.154-1.414.035-2.643.795-3.813,1.516-1.011.623-1.993,1.294-2.963,1.98-2.438,1.726-4.796,3.564-7.145,5.406-1.021.801-.839,2.555,0,3.394,1.008,1.008,2.371.803,3.394,0h0Z"/><path class="g" d="M62.208,89.911c-1.702-2.124-3.402-4.25-5.13-6.354-.879-1.071-1.716-2.306-2.896-3.066-1.414-.91-3.14-.926-4.628-.214-1.617.774-2.278,2.16-3.027,3.693-.68,1.392-1.342,2.794-1.97,4.21-.951,2.145-1.848,4.315-2.655,6.517l-1.62,4.419c-.446,1.217.5,2.629,1.676,2.952,1.338.368,2.505-.455,2.952-1.676.947-2.583,1.861-5.178,2.906-7.723,1.016-2.474,2.209-4.985,3.417-7.418.096-.193.184-.403.293-.588-.015.026-.211.252-.029.018.149-.191.038-.041-.025.003.119-.083.273-.167.403-.221-.077.032-.292.067-.095.067.303-.001-.261.019-.255.02.598.02-.007-.008-.005-.028.005-.046.364.181.035-.011.235.137.186.127.447.418.19.212.369.436.551.655.331.398.661.798.99,1.198,1.775,2.159,3.521,4.342,5.269,6.523.811,1.012,2.548.846,3.394,0,1-1,.813-2.379,0-3.394h0Z"/><path class="g" d="M59.669,131c1.295.518,4.37.508,4.826-1.978.239-3.316-3.438-3.801-5.261-2.83-1.493.795-2.294,3.432.436,4.808Z"/><path class="g" d="M79.058,119.285c.399,1.794-.266,5.79-3.596,5.856-4.363-.391-4.213-5.276-2.564-7.441,1.35-1.772,4.949-2.255,6.16,1.586Z"/><path class="g" d="M46.127,116.619c-.683,1.707-.669,5.757,2.607,6.358,4.369.316,5.008-4.53,3.729-6.932-1.047-1.967-4.521-3.022-6.335.574Z"/><path class="g" d="M64.897,133.022c-.083.092-.192.174-.265.271-.148.197.35-.198.123-.093-.112.051-.228.133-.333.2-.269.17.014-.038.144-.046-.227.015-.533.167-.761.222-.38.092.141-.059.17-.015-.017-.026-.351.022-.387.022-.102.002-.203-.004-.304-.005-.372-.002-.083-.155.126.028-.046-.04-.213-.045-.275-.062l-.132-.039c-.174-.062-.17-.058.013.011.162.071.185.076.07.014-.048-.026-.094-.055-.138-.086-.146-.099-.092-.059.163.121l-.119-.116-.112-.124.173.218c-.021.039-.371-.788-.064-.027-.367-.913-.965-1.581-1.995-1.719-.954-.128-1.887.316-2.391,1.146-.197.323.074.005.063-.039-.002-.008-.413.444-.149.184.218-.214-.072.023-.124.066-.202.168.346-.075.091-.031-.494.084-.033-.036.11.021-.063-.025-.216.014-.287.015-.098.001-.196-.009-.294-.01-.426-.004.378.115.113.011-.184-.072-.408-.116-.599-.171-.274-.078.507.274.065.021-.092-.053-.187-.1-.278-.155-.07-.043-.187-.16-.265-.175.114.022.347.31.118.076-.091-.093-.181-.191-.273-.282-.208-.205.327.474.052.045-.676-1.057-2.164-1.583-3.284-.861-1.057.681-1.585,2.152-.861,3.284,1.026,1.605,2.705,2.678,4.593,2.931,2.184.293,4.192-.598,5.352-2.507l-4.387-.573c.457,1.136,1.067,2.054,2.097,2.75.835.564,1.836.784,2.827.836,1.794.094,3.796-.612,5.008-1.96.839-.933.99-2.486,0-3.394-.916-.841-2.498-.997-3.394,0h0Z"/><path class="g" d="M58.48,131.587l-.134,1.657-.019.239c-.012.33.056.639.207.925.097.298.262.555.496.772.217.234.475.399.772.496.286.15.594.219.925.207l.638-.086c.407-.114.76-.32,1.059-.617l.375-.486c.217-.374.326-.778.328-1.211l.134-1.657.019-.239c.012-.33-.056-.639-.207-.925-.097-.298-.262-.555-.496-.772-.217-.234-.475-.399-.772-.496-.286-.15-.594-.219-.925-.207l-.638.086c-.407.114-.76.32-1.059.617l-.375.486c-.217.374-.326.778-.328,1.211h0Z"/><path class="g" d="M109.407,132.273c-2.256-.708-4.512-1.413-6.828-1.901-2.141-.451-4.319-.743-6.49-1.006-1.251-.151-2.453,1.212-2.4,2.4.064,1.43,1.06,2.238,2.4,2.4.32.039.64.079.96.12-.482-.063.414.059.499.071.545.079,1.09.163,1.634.253.746.123,1.49.256,2.229.414,2.279.487,4.499,1.182,6.72,1.878,1.198.376,2.671-.443,2.952-1.676.297-1.306-.393-2.55-1.676-2.952h0Z"/><path class="g" d="M104.449,142.738c-1.282-1.438-2.623-2.799-4.138-3.995-1.643-1.298-3.292-2.558-5.153-3.531-1.112-.581-2.659-.322-3.284.861-.584,1.105-.327,2.663.861,3.284.869.454,1.708.959,2.511,1.523.35.246.694.502,1.034.762.296.226.041.036-.102-.08.092.074.186.145.279.217.192.149.383.298.573.45,1.47,1.172,2.774,2.504,4.024,3.905.838.94,2.552.918,3.394,0,.921-1.003.894-2.392,0-3.394h0Z"/><path class="g" d="M25.417,133.192c1.188-.212,2.375-.429,3.567-.614.307-.048.615-.093.923-.136-.47.065.466-.056.55-.066.546-.063,1.092-.119,1.64-.163,2.05-.165,4.115-.191,6.171-.178,1.256.008,2.458-1.11,2.4-2.4-.059-1.307-1.054-2.391-2.4-2.4-2.095-.014-4.2.013-6.289.188-2.634.22-5.238.675-7.838,1.14-1.239.221-2.05,1.798-1.676,2.952.431,1.331,1.625,1.913,2.952,1.676h0Z"/><path class="g" d="M32.538,142.568c.354-.308.71-.613,1.072-.911.146-.12.293-.239.441-.357.045-.036.415-.325.08-.065-.302.235-.041.034.024-.015.648-.486,1.323-.934,2.017-1.351.677-.408,1.358-.812,2.056-1.183.337-.179.678-.349,1.024-.509.107-.049.215-.096.322-.144.305-.138-.088.071-.169.071.197,0,.534-.21.725-.281.598-.222,1.103-.536,1.434-1.103.301-.514.429-1.273.242-1.849-.372-1.15-1.692-2.143-2.952-1.676-3.61,1.338-6.816,3.466-9.709,5.98-.951.826-.909,2.559,0,3.394,1.013.93,2.38.881,3.394,0h0Z"/><path class="g" d="M80.108,91.702c-6.214-1.841-12.691-2.613-19.13-1.72-1.285.178-1.987,1.82-1.676,2.952.38,1.384,1.663,1.855,2.952,1.676,5.543-.768,11.259.145,16.578,1.72,1.242.368,2.614-.444,2.952-1.676.35-1.274-.429-2.583-1.676-2.952h0Z"/><path class="g" d="M40.509,98.288c-7.767,6.25-11.611,16.446-11.26,26.252.143,3.982.647,7.739,2.241,11.4,1.618,3.717,4.111,7.065,7.435,9.418,4.113,2.91,9.234,4.59,14.175,5.313,1.281.187,2.579-.318,2.952-1.676.31-1.129-.386-2.763-1.676-2.952-4.075-.596-7.708-1.839-11.33-3.792-3.05-1.644-5.214-4.287-6.764-7.347-1.353-2.673-1.91-5.521-2.134-8.583-.336-4.584.038-9.086,1.701-13.401,1.694-4.397,4.379-8.279,8.055-11.236,1.011-.813.847-2.547,0-3.394-.999-.999-2.381-.815-3.394,0h0Z"/><path class="g" d="M95.002,105.422c4.312,5.294,5.879,12.416,5.629,19.109-.236,6.311-2.051,12.7-6.9,17.021-2.311,2.059,1.093,5.444,3.394,3.394,5.781-5.152,8.022-12.899,8.305-20.415.304-8.056-1.9-16.199-7.035-22.503-.819-1.006-2.543-.851-3.394,0-.994.994-.821,2.386,0,3.394h0Z"/><path class="g" d="M73.667,92.859c-.884,1.949-1.656,3.951-2.322,5.984-.188.575-.058,1.337.242,1.849.291.498.862.973,1.434,1.103,1.32.301,2.533-.398,2.952-1.676.486-1.483,1.028-2.949,1.633-4.388l-.242.573c.145-.343.294-.683.447-1.022.274-.604.425-1.185.242-1.849-.153-.557-.584-1.16-1.103-1.434-.557-.294-1.232-.442-1.849-.242-.559.181-1.181.545-1.434,1.103h0Z"/><path class="g" d="M66.957,92.421c-1.055,2.813-1.905,5.7-2.636,8.614-.305,1.216.393,2.66,1.676,2.952,1.244.283,2.626-.374,2.952-1.676.731-2.913,1.581-5.8,2.636-8.614.442-1.178-.491-2.682-1.676-2.952-1.364-.311-2.479.415-2.952,1.676h0Z"/><path class="g" d="M60.757,92.025c-.75,1.815-1.425,3.662-2.004,5.539-.37,1.2.439,2.671,1.676,2.952,1.301.296,2.556-.392,2.952-1.676.579-1.877,1.254-3.724,2.004-5.539.221-.535.036-1.375-.242-1.849-.291-.498-.862-.973-1.434-1.103-.614-.14-1.304-.11-1.849.242l-.486.375c-.297.299-.503.652-.617,1.059h0Z"/><path class="g" d="M110.935,107.405c-3.261.436-6.43,1.178-9.488,2.406-.602.242-1.094.522-1.434,1.103-.301.514-.429,1.273-.242,1.849.363,1.123,1.705,2.177,2.952,1.676,1.391-.559,2.814-1.034,4.263-1.417.714-.189,1.433-.356,2.157-.501.376-.075.753-.145,1.13-.208.162-.027.324-.053.486-.078.147-.023.913-.129.175-.03.663-.089,1.203-.209,1.697-.703.416-.416.73-1.099.703-1.697-.028-.621-.232-1.264-.703-1.697-.433-.397-1.085-.785-1.697-.703h0Z"/><path class="g" d="M41.738,147.682c1.554,3.395,4.774,6.59,8.086,8.296,1.571.809,3.251,1.442,4.935,1.97,2.081.653,4.377.87,6.339,1.838,1.162.573,2.597.313,3.284-.861.619-1.059.306-2.708-.861-3.284-2.119-1.045-4.361-1.412-6.609-2.059-.875-.252-1.742-.533-2.596-.849-.199-.074-.397-.149-.594-.227-.05-.02-.62-.255-.37-.148.233.099-.329-.149-.318-.144-.152-.07-.304-.141-.454-.214-1.38-.672-2.314-1.372-3.387-2.375-1.38-1.289-2.523-2.646-3.31-4.366-.539-1.179-2.245-1.469-3.284-.861-1.211.708-1.402,2.101-.861,3.284h0Z"/><path class="g" d="M41.867,163.614c-.417-.559-.796-1.142-1.125-1.757-.077-.144-.151-.289-.222-.435-.018-.037-.208-.438-.132-.268.081.181-.157-.401-.153-.391-.056-.152-.11-.305-.161-.459-.216-.654-.382-1.324-.499-2.002-.007-.042-.072-.5-.045-.281s-.019-.243-.023-.284c-.03-.363-.047-.727-.05-1.091-.002-.323.007-.647.028-.97.01-.162.026-.322.039-.484.012-.148.043-.347.005-.085.099-.681.259-1.355.464-2.012.109-.349.228-.696.37-1.033-.116.275.209-.417.272-.538.171-.328.357-.649.555-.961.089-.14.18-.277.275-.414.03-.044.336-.457.147-.216.799-1.019.994-2.4,0-3.394-.831-.831-2.59-1.025-3.394,0-2.237,2.852-3.519,6.215-3.56,9.863-.038,3.411,1.022,6.894,3.064,9.635.773,1.038,2.077,1.567,3.284.861,1.023-.598,1.64-2.238.861-3.284h0Z"/><path class="g" d="M81.375,176.285c1.315,0,2.772-.452,4.057-.714,1.353-.276,2.7-.584,4.038-.927,2.791-.716,5.545-1.584,8.224-2.647,5.473-2.171,10.608-5.067,14.938-9.095,2.267-2.109-1.134-5.497-3.394-3.394-3.789,3.525-8.386,6.136-13.195,8.008-2.436.948-4.934,1.737-7.462,2.4-1.276.334-2.56.636-3.85.908-.635.134-1.271.261-1.908.381-.315.059-.631.117-.947.173-.155.027-1.196.108-.501.108-3.089,0-3.094,4.8,0,4.8h0Z"/><path class="g" d="M60.917,167.764c-.135-.279-.332-.792-.465-1.307-.182-.705-.178-.75-.198-1.266-.044-1.107.001-1.417.382-2.516.172-.496-.082.114.135-.314.109-.214.225-.424.352-.628.023-.036.424-.593.185-.293.175-.22.372-.424.574-.619.595-.572,1.221-.928,2.104-1.176,2.826-.793,5.911-.017,8.797-.119,3-.106,5.77-.921,8.068-2.903.982-.847.869-2.525,0-3.394-.974-.974-2.41-.849-3.394,0-2.15,1.854-5.275,1.557-7.919,1.411-3.154-.174-6.5-.261-9.3,1.439-4.903,2.976-5.839,9.21-3.465,14.109.565,1.166,2.227,1.479,3.284.861,1.191-.697,1.428-2.113.861-3.284h0Z"/><path class="g" d="M17.144,113.035c-4.111-.896-8.223-1.791-12.334-2.687l-1.757-.383c-1.224-.267-2.654.366-2.952,1.676-.276,1.211.364,2.666,1.676,2.952,4.111.896,8.223,1.791,12.334,2.687l1.757.383c1.224.267,2.654-.366,2.952-1.676.276-1.211-.364-2.666-1.676-2.952h0Z"/><path class="g" d="M124.226,5.283c7.656,1.669,15.312,3.338,22.968,5.006,14.02,3.056,28.04,6.112,42.06,9.168l15.979,3.483c2.532.552,5.126,1,7.618,1.721,9.531,2.756,16.594,11.526,17.126,21.459.136,2.533.038,5.094.038,7.629,0,12.813,0,25.625,0,38.438v36.744c0,3.498.156,7.003-.707,10.428-1.256,4.987-4.082,9.399-8.029,12.688-.935.779-1.952,1.461-3.001,2.077-.517.304-1.045.59-1.582.858-.325.162-.655.311-.983.466-.559.263-.333.148-.099.049-.167.071-.336.139-.503.209-8.571,3.562-17.142,7.124-25.713,10.687-13.295,5.525-26.59,11.051-39.885,16.576-4.734,1.967-9.467,3.935-14.201,5.902-3.046,1.266-6.08,2.659-9.286,3.47-4.695,1.189-9.619,1.25-14.35.23-.864-.186-1.727-.376-2.591-.565l-13.209-2.879c-13.784-3.005-27.568-6.009-41.352-9.014-9.904-2.159-19.808-4.317-29.712-6.476-6.202-1.352-11.798-4.363-15.529-9.653-2.842-4.03-4.417-8.784-4.461-13.72-.006-.663-.001-1.327-.001-1.99,0-11.085,0-22.17,0-33.254,0-13.379,0-26.759,0-40.138,0-2.841-.013-5.683,0-8.524.043-9.368,5.471-17.848,13.971-21.801.143-.066,1.003-.443.434-.201.019-.008.037-.015.056-.023.081-.034.162-.068.244-.101.358-.148.715-.297,1.072-.446l4.086-1.698,14.17-5.889c13.297-5.526,26.595-11.053,39.892-16.579,9.679-4.023,19.359-8.046,29.038-12.069.664-.276,1.327-.554,1.992-.828,4.603-1.894,9.564-2.46,14.451-1.439,3.014.63,4.303-3.996,1.276-4.629-5.679-1.187-11.59-.787-16.975,1.427-.674.277-1.347.56-2.02.839-3.845,1.598-7.689,3.196-11.534,4.794-12.986,5.397-25.972,10.794-38.957,16.191-11.135,4.628-22.269,9.255-33.404,13.883-2.722,1.131-5.606,2.157-8.168,3.616C5.54,46.478.069,56.135.02,66.339-.024,75.34.02,84.341.02,93.341v55.24c0,6.604,1.516,12.981,5.512,18.371,4.406,5.943,10.645,9.711,17.829,11.277l10.785,2.351c13.605,2.965,27.21,5.931,40.815,8.896,11.039,2.406,22.078,4.812,33.117,7.218.792.173,1.584.348,2.377.518,5.563,1.196,11.323,1.156,16.847-.243,3.281-.831,6.394-2.268,9.512-3.564,11.427-4.749,22.854-9.498,34.28-14.247,12.391-5.15,24.783-10.3,37.174-15.45,2.787-1.158,5.575-2.313,8.36-3.475,8.484-3.537,15.04-10.589,17.308-19.599.966-3.835.878-7.68.878-11.584v-59.279c0-5.521,0-11.041,0-16.562s.153-6.158-.234-9.181c-1.397-10.921-8.99-20.202-19.451-23.686-2.68-.893-5.544-1.362-8.299-1.963-12.38-2.699-24.761-5.397-37.141-8.096-12.629-2.753-25.257-5.505-37.886-8.258-2.101-.458-4.202-.916-6.303-1.374-3.011-.656-4.298,3.97-1.276,4.629Z"/><path class="e" d="M144.604,22.155c0-7.395-8.888-6.267-11.898-5.016-8.169,3.395-16.339,6.791-24.508,10.187-3.976,1.653-6.566,5.535-6.566,9.841v4.928c0,2.394,1.668,4.465,4.007,4.975h0c1.02.222,2.083.126,3.046-.276l32.789-13.688c1.896-.791,3.13-2.644,3.13-4.699v-6.252"/><path class="g" d="M111.089,36.244c8.444-3.51,16.889-7.021,25.334-10.53,1.196-.497,2.05-1.591,1.676-2.952-.31-1.13-1.748-2.177-2.952-1.676-8.445,3.51-16.889,7.02-25.334,10.53-1.196.497-2.05,1.591-1.676,2.952.31,1.13,1.748,2.177,2.952,1.676h0Z"/><path class="g" d="M147.004,22.155c-.046-2.65-.997-5.076-3.19-6.654-1.734-1.248-3.977-1.674-6.078-1.675-1.8-.001-3.7.271-5.396.892-3.619,1.325-7.152,2.966-10.711,4.445-3.782,1.572-7.564,3.144-11.346,4.716-3.331,1.385-6.313,2.624-8.532,5.601-2.737,3.673-2.64,8.193-2.52,12.551.146,5.303,5.37,8.991,10.389,6.951,2.129-.865,4.243-1.771,6.364-2.657,7.087-2.958,14.173-5.917,21.26-8.875,2.042-.853,4.519-1.552,6.379-2.787,4.237-2.813,3.38-8.123,3.38-12.509,0-3.089-4.8-3.094-4.8,0v4.098c0,1.31.259,2.91-.692,3.958-.191.21-1.213.844-.678.581-.028.014-.059.023-.087.036-.185.087-.379.158-.567.237l-2.493,1.041-18.669,7.793-8.303,3.466c-1.421.593-3.556,1.889-5.087,1.203-1.42-.636-1.596-1.974-1.596-3.338,0-1.471-.047-2.951.006-4.421.086-2.385,1.278-4.683,3.154-6.157.901-.707,1.958-1.143,3.006-1.578,1.815-.755,3.631-1.509,5.446-2.264,3.858-1.604,7.715-3.207,11.573-4.811,2.635-1.095,5.307-2.546,8.119-3.137,1.352-.284,3.23-.31,4.683.067.049.013.729.265.254.063.235.1.448.233.673.352.1.053.476.338.129.061.223.178.438.388.616.612-.305-.382.112.214.132.256.212.437-.032-.224.141.307.215.661.228.852.24,1.576.053,3.085,4.854,3.095,4.8,0h0Z"/><path class="g" d="M150.537,105.33v-24.589c0-3.089-4.8-3.094-4.8,0v24.589c0,3.089,4.8,3.094,4.8,0h0Z"/><path class="g" d="M176.183,94.671v-25.042c0-3.089-4.8-3.094-4.8,0v25.042c0,3.089,4.8,3.094,4.8,0h0Z"/><path class="g" d="M201.819,84.012v-24.911c0-3.089-4.8-3.094-4.8,0v24.911c0,3.089,4.8,3.094,4.8,0h0Z"/><path class="g" d="M230.015,78.912c-.035,3.95-1.312,7.836-3.766,10.957-1.19,1.513-2.652,2.85-4.269,3.891-.808.521-1.652.956-2.515,1.377-1.044.51.109-.038-.141.069-1.399.598-2.809,1.168-4.214,1.751-7.794,3.239-15.589,6.479-23.383,9.718-10.557,4.388-21.115,8.775-31.672,13.163l-25.979,10.797-6.486,2.696c-.425.177-.848.358-1.277.525-3.923,1.525-7.786,1.46-11.825.58l-2.913-.635c-3.011-.656-4.298,3.97-1.276,4.629,2.71.591,5.436,1.32,8.215,1.48,3.282.188,6.623-.413,9.658-1.661,1.66-.683,3.315-1.378,4.973-2.067l24.776-10.297,32.277-13.415c8.364-3.476,16.728-6.952,25.092-10.428,1.714-.712,3.429-1.423,5.142-2.137,6.429-2.682,11.409-7.808,13.441-14.543.628-2.082.923-4.279.943-6.45.028-3.09-4.772-3.092-4.8,0h0Z"/><path class="e" d="M164.277,115.456c0,3.709,0,6.726,0,8.963,0,2.16,2.196,3.623,4.19,2.794,6.287-2.614,16.349-6.797,21.119-8.78,1.129-.469,1.864-1.57,1.865-2.793,0-1.881,0-4.865.001-8.964,0-2.16-2.196-3.633-4.191-2.804-6.287,2.614-16.349,6.797-21.121,8.781-1.13.47-1.865,1.58-1.865,2.803Z"/><path class="g" d="M161.877,115.456c0,1.87,0,3.74,0,5.61,0,1.456-.176,3.056.13,4.487.76,3.549,4.504,5.053,7.68,3.732,5.724-2.38,11.448-4.759,17.172-7.139,2.721-1.131,6.172-2.004,6.852-5.33.272-1.332.14-2.779.14-4.133,0-1.682,0-3.364,0-5.045,0-1.854-.276-3.568-1.692-4.902-1.303-1.227-3.156-1.737-4.903-1.366-1.324.281-2.638,1.02-3.885,1.539-1.497.622-2.994,1.245-4.491,1.867-3.238,1.346-6.476,2.692-9.714,4.039-1.221.508-2.444,1.012-3.664,1.523-2.216.928-3.483,2.721-3.627,5.117-.184,3.085,4.616,3.075,4.8,0,.039-.659.76-.762,1.274-.976,1.034-.43,2.068-.86,3.102-1.29,2.381-.99,4.761-1.979,7.142-2.969,2.423-1.007,4.846-2.015,7.269-3.022.827-.344,1.904-1.036,2.749-1.154.738-.103.853.405.84,1.117-.045,2.538,0,5.082,0,7.621,0,.539.105,1.121-.323,1.427-.768.549-1.98.823-2.852,1.186-4.766,1.981-9.532,3.963-14.298,5.944-1.201.499-2.411.983-3.605,1.499-.64.276-1.139.331-1.312-.401-.101-.428.016-1.136.016-1.588,0-.722,0-1.444,0-2.167,0-1.743,0-3.485,0-5.228,0-3.089-4.8-3.094-4.8,0Z"/><path class="g" d="M14.11,74.057c0,14.24,0,28.479,0,42.719,0,7.102,0,14.204,0,21.306,0,3.539,0,7.078,0,10.616,0,3.065.092,5.909,1.567,8.678,1.215,2.281,3.208,4.253,5.525,5.405,2.876,1.43,6.249,1.81,9.359,2.488,7.041,1.535,14.083,3.07,21.124,4.604,14.002,3.052,28.004,6.104,42.005,9.156,3.16.689,6.425,1.788,9.684,1.318,2.546-.367,4.977-1.614,6.744-3.494,1.819-1.934,2.899-4.373,3.161-7.008.341-3.431.058-7.013.058-10.461,0-14.203,0-28.407,0-42.61,0-7.052,0-14.104,0-21.155,0-3.176.164-6.257-1.129-9.23-1.042-2.396-2.829-4.423-5.044-5.807-1.927-1.204-4.082-1.642-6.264-2.117-1.973-.43-3.947-.86-5.92-1.29-4.693-1.023-9.385-2.046-14.078-3.068-11.171-2.435-22.342-4.87-33.513-7.304-5.391-1.175-10.781-2.35-16.172-3.525-2.731-.595-5.338-1.238-8.13-.598-2.5.573-4.801,2.063-6.39,4.064-1.676,2.111-2.54,4.621-2.589,7.315-.057,3.09,4.743,3.09,4.8,0,.076-4.108,3.673-7.405,7.821-6.846,2.408.324,4.825,1.046,7.199,1.563,2.512.547,5.024,1.095,7.535,1.642,10.706,2.333,21.411,4.667,32.117,7,8.721,1.901,17.443,3.802,26.164,5.703,1.9.414,3.809.717,5.422,1.886,1.673,1.213,2.776,3.018,3.212,5.025.255,1.175.157,2.411.157,3.605,0,1.815,0,3.63,0,5.446,0,3.365,0,6.73,0,10.095,0,13.374,0,26.748,0,40.122,0,3.362,0,6.725,0,10.087,0,3.299.167,6.647-.016,9.94-.23,4.138-4.27,6.942-8.214,6.24-6.67-1.186-13.29-2.897-19.91-4.34s-13.273-2.893-19.91-4.34-13.273-2.893-19.91-4.34c-3.237-.706-6.475-1.411-9.712-2.117-2.735-.596-5.888-.834-8.284-2.385-4.695-3.04-3.671-9.001-3.671-13.799,0-6.713,0-13.425,0-20.138,0-13.382,0-26.765,0-40.147,0-3.301,0-6.601,0-9.902,0-3.089-4.8-3.094-4.8,0Z"/><path class="g" d="M18.024,131.534c23.841,5.197,47.681,10.393,71.522,15.59,6.754,1.472,13.507,2.944,20.261,4.416,3.011.656,4.298-3.97,1.276-4.629-23.841-5.196-47.681-10.393-71.522-15.59-6.754-1.472-13.507-2.944-20.261-4.416-3.011-.656-4.298,3.97-1.276,4.629h0Z"/><path class="g" d="M16.934,100.548c24.314,5.3,48.628,10.6,72.942,15.899,6.808,1.484,13.616,2.968,20.424,4.452,3.011.656,4.298-3.97,1.276-4.629-24.314-5.3-48.628-10.599-72.942-15.899-6.808-1.484-13.616-2.968-20.424-4.452-3.011-.656-4.298,3.97-1.276,4.629h0Z"/><path class="g" d="M38.539,69.627c0,24.393,0,48.787,0,73.18v20.909c0,3.089,4.8,3.094,4.8,0v-1.777c0-3.089-4.8-3.094-4.8,0v1.777c0,3.089,4.8,3.094,4.8,0,0-24.393,0-48.787,0-73.18,0-6.97,0-13.939,0-20.909,0-3.089-4.8-3.094-4.8,0h0Z"/><path class="g" d="M82.091,79.523c0,24.393,0,48.787,0,73.18,0,6.97,0,13.939,0,20.909h4.8v-1.777c0-3.089-4.8-3.094-4.8,0v1.777c0,3.089,4.8,3.094,4.8,0,0-24.393,0-48.787,0-73.18,0-6.97,0-13.939,0-20.909,0-3.089-4.8-3.094-4.8,0h0Z"/></g></svg>