<?xml version="1.0" standalone="no"?>
<!DOCTYPE svg PUBLIC "-//W3C//DTD SVG 20010904//EN"
 "http://www.w3.org/TR/2001/REC-SVG-20010904/DTD/svg10.dtd">
<svg version="1.0" xmlns="http://www.w3.org/2000/svg"
 width="1012.000000pt" height="1012.000000pt" viewBox="0 0 1012.000000 1012.000000"
 preserveAspectRatio="xMidYMid meet">

<g transform="translate(0.000000,512.000000) scale(0.100000,-0.100000)"
fill="#000000" stroke="none">
<path d="M2516 5023 c-16 -3 -55 -22 -87 -44 -47 -32 -63 -50 -91 -106 l-33
-68 0 -1115 0 -1115 24 -49 c30 -61 82 -113 138 -138 43 -19 77 -20 1191 -21
949 -2 1154 0 1186 12 58 20 111 73 137 139 l24 57 0 1125 0 1125 -30 54 c-28
51 -80 102 -135 132 -21 12 -214 14 -1160 15 -624 1 -1148 -1 -1164 -3z m1650
-1314 c274 -457 501 -835 502 -840 2 -5 -433 -9 -1002 -9 -553 0 -1006 3
-1006 7 0 12 298 526 385 663 33 52 287 476 438 730 83 140 172 280 178 280 3
0 230 -374 505 -831z"/>
<path d="M3554 3846 c-55 -94 -169 -287 -253 -428 -83 -142 -154 -263 -156
-270 -4 -10 99 -13 516 -11 287 1 523 4 525 6 2 2 -98 172 -223 378 -124 206
-241 400 -260 431 -18 31 -37 59 -41 61 -4 2 -52 -73 -108 -167z"/>
</g>
</svg>
